<?xml version="1.0" encoding="utf-8"?>
<!-- Generator: Adobe Illustrator 27.2.0, SVG Export Plug-In . SVG Version: 6.00 Build 0)  -->
<svg version="1.1" id="Capa_3" xmlns="http://www.w3.org/2000/svg" xmlns:xlink="http://www.w3.org/1999/xlink" x="0px" y="0px"
	 viewBox="0 0 766 811.4" style="enable-background:new 0 0 766 811.4;" xml:space="preserve">
<style type="text/css">
	.st0{fill:#20201D;}
</style>
<g>
	<g>
		<path class="st0" d="M636.73,744.29H129.27V403.91h507.46V744.29z M134.27,739.29h497.46V408.91H134.27V739.29z"/>
	</g>
	<g>
		<path class="st0" d="M673.49,408.91H92.51v-104.3h580.98V408.91z M97.51,403.91h570.98v-94.3H97.51V403.91z"/>
	</g>
	<g>
		<path class="st0" d="M385.32,741.79h-5l0-434.24l0.09-0.32c0.15-0.55,15.3-55.83,38.13-112.47
			c30.89-76.64,60.5-119.2,88.01-126.51c12.46-3.31,24.37,0.61,35.41,11.65c13.67,13.66,19.08,30.28,16.11,49.4
			c-11.78,75.59-151.13,168-172.75,180.08L385.32,741.79z M515.08,72.1c-2.38,0-4.8,0.33-7.25,0.98
			c-56.48,15.01-110.86,194.67-120.94,229.62c14.93-8.99,49.99-32.82,83.03-61.41c34.61-29.96,77.14-73.83,83.21-112.75
			c2.72-17.45-2.23-32.62-14.7-45.09C530.84,75.85,523.15,72.1,515.08,72.1z"/>
	</g>
	<g>
		<path class="st0" d="M385.32,741.79h-5V309.25c-12.63-8.2-122.84-81.49-133.69-148.23c-2.82-17.34,1.3-32.91,12.24-46.27
			c8.69-10.62,18.14-14.86,28.08-12.59c50.85,11.59,96.39,197.24,98.3,205.14l0.07,0.29V741.79z M281.78,106.56
			c-6.56,0-12.82,3.74-19.05,11.35c-9.99,12.21-13.75,26.44-11.17,42.31c4.32,26.54,26.75,58.84,64.87,93.43
			c25.78,23.39,51.55,41.38,62.39,48.63c-3.75-14.54-13.96-52.52-27.86-90.96c-23.07-63.77-45.59-99.84-65.13-104.29
			C284.47,106.72,283.12,106.56,281.78,106.56z"/>
	</g>
</g>
</svg>
