<?xml version="1.0" encoding="utf-8"?>
<!-- Generator: Adobe Illustrator 27.2.0, SVG Export Plug-In . SVG Version: 6.00 Build 0)  -->
<svg version="1.1" id="Capa_2" xmlns="http://www.w3.org/2000/svg" xmlns:xlink="http://www.w3.org/1999/xlink" x="0px" y="0px"
	 viewBox="0 0 766 811.4" style="enable-background:new 0 0 766 811.4;" xml:space="preserve">
<style type="text/css">
	.st0{fill:#20201D;}
</style>
<g id="crumIY_00000086690814555486283610000011475605360566862494_">
	<g>
		<path class="st0" d="M383.17,593.55c-94.32,0-188.64,0-282.97,0c-9.8,0-12.07-2.28-12.07-12.04
			c0.01-117.49,0.02-234.97,0.02-352.46c0-8.39,2.69-11.19,10.97-11.19c189.31-0.01,378.62-0.01,567.93,0
			c7.99,0,10.8,2.87,10.8,10.86c0.01,117.82,0.02,235.64,0.02,353.46c0,8.83-2.52,11.36-11.24,11.36
			C572.15,593.55,477.66,593.55,383.17,593.55z M382.98,456.71c33.46-26.47,66.53-52.58,99.53-78.76
			c46.32-36.74,92.59-73.55,138.88-110.32c16.3-12.95,32.64-25.86,48.9-38.85c1.01-0.81,1.53-2.25,2.27-3.39
			c-1.41-0.92-2.74-2.05-4.27-2.67c-1-0.41-2.3-0.09-3.47-0.09c-86.81-0.01-173.63-0.01-260.44-0.02
			c-101.48,0-202.96-0.01-304.43,0.11c-2.14,0-4.27,1.58-6.41,2.42c1.17,1.58,2.06,3.5,3.54,4.69
			c77.82,61.86,155.7,123.66,233.57,185.46C347.99,429.05,365.36,442.77,382.98,456.71z M92.82,584.96
			c2.49,5.77,7.12,3.74,10.7,3.74c184.8,0.09,369.6,0.08,554.41,0.08c3.33,0,6.7,0.29,9.98-0.13c1.86-0.23,3.57-1.62,6.26-2.93
			c-75.15-59.62-149.07-118.27-223.05-176.95c-22.99,18.23-45.53,36.09-68.12,54.01c-22.86-18.13-45.4-36-68.11-54.01
			C240.75,467.59,166.93,526.16,92.82,584.96z M672.63,578.47c0-115.51,0-230.13,0-345.45c-72.9,57.83-145.18,115.16-217.73,172.71
			C527.8,463.56,599.92,520.78,672.63,578.47z M93.19,578.61c72.93-57.86,145.21-115.21,217.9-172.88
			c-72.84-57.78-145.1-115.1-217.9-172.84C93.19,348.53,93.19,463.08,93.19,578.61z"/>
	</g>
</g>
</svg>
